# xmcd
#
# Track frame offsets:
#	150
#	17727
#	36842
#	50160
#	67356
#	86628
#	100975
#	113836
#	124924
#	151743
#	170649
#	184948
#	203084
#	225165
#	236580
#	247394
#	260014
#	276845
#	298704
#
# Disc length: 4241
#
# Revision: 3
# Processed by: cddbd v1.5.1PL0 Copyright (c) Steve Scherf et al.
# Submitted via: CDex 1.50beta10
# Normalized: r2:TDELIM( - )
#
DISCID=1f108f13
DTITLE=Various Artist - The Buddha Ethnik Collection [CD 1)
DYEAR=1900
DGENRE=
TTITLE0=Barbara Luna - India Morena
TTITLE1=Anastacia - Lumer Lumera
TTITLE2=Astor Piazzolla - Chador
TTITLE3=Susana Baca - Dos De Febrero
TTITLE4=Teofilo Chantre - Nha Gloria
TTITLE5=Astrud Gilberto - The Girl From Ipanema
TTITLE6=Gilberto Gil - Roda
TTITLE7=Bana - Gira Sol
TTITLE8=Tito Paris - Preto E MI
TTITLE9=La Fmilia Valera Miranda - Este Vacilon
TTITLE10=Tekameli - Christo
TTITLE11=Giorgis Christodoulou - Nena Venetsanou
TTITLE12=Petru Guelfucci - Corsica
TTITLE13=Une Anche Passe - Valzer Annalu
TTITLE14=Flavio Esposito - La Tarantella
TTITLE15=Aksak - Perdika, La Joliette
TTITLE16=Christina Branco - Al Vida
TTITLE17=Jose Mendez - El Mar De Cai
TTITLE18=Les Yeux Noirs - Fraylekh
EXTD=
EXTT0=
EXTT1=
EXTT2=
EXTT3=
EXTT4=
EXTT5=
EXTT6=
EXTT7=
EXTT8=
EXTT9=
EXTT10=
EXTT11=
EXTT12=
EXTT13=
EXTT14=
EXTT15=
EXTT16=
EXTT17=
EXTT18=
PLAYORDER=
